<svg width="1366" height="390" viewBox="0 0 1366 390" fill="none" xmlns="http://www.w3.org/2000/svg">
<path d="M1044.03 309.236V297.782H1030.65V294.786H1013.27V285.863H1007.74V194.105H997.883V185.382H1006.07V183.45H987.96V180.787H955.128V205.758H949.8V194.904V180.787H918.899V187.646H900.186V188.644H909.509V194.904H906.712V198.166H900.186V270.348H877.876V283.932H875.612V313.164H870.683V265.487H865.356V260.56H860.76V256.697H854.5V251.171H828.994V256.697H823.866V260.693H820.603V254.434H801.223V260.693H792.632V294.853H789.702V240.117H787.438V234.99H783.442C783.442 234.79 783.442 234.657 783.442 234.457C783.442 227.665 779.38 222.138 774.451 222.138C769.523 222.138 765.461 227.665 765.461 234.457C765.461 234.657 765.461 234.79 765.461 234.99H759.534V214.614H731.896V205.092H733.561V201.829H708.92V198.233H688.875V201.829H684.28H669.295V198.233V192.24H640.725V198.166H618.549V203.094H611.49V208.621H605.229V214.547H598.037V218.809H591.178V224.136H534.77V230.662H524.914V246.709H517.455V248.973H506.8V277.939H503.87V310.767H500.273V250.971H489.751V246.709H482.159V137.105L482.492 136.639L481.16 -8.12844e-06C481.16 -8.12844e-06 481.16 2.26401 479.828 7.59106C478.496 12.9181 477.897 30.8969 477.164 36.5569C476.565 42.0837 468.24 50.3407 458.717 56.6C449.194 62.8592 444.266 63.8581 430.147 77.3089C416.029 90.7597 416.029 98.2842 415.296 101.68C414.763 104.344 414.231 125.852 414.031 134.242H406.705V143.165H400.245V286.129H391.654V265.487H386.726V260.16H378.934V248.973H374.006V226.799H371.742V214.481H366.414C365.349 208.022 362.019 203.294 358.09 203.294C354.227 203.294 350.831 207.955 349.765 214.481H345.436V226.799H342.44V274.477H330.985V277.939H318.798V281.535H309.607V274.477H305.612V269.083H304.28V267.152L293.757 254.367L284.234 267.152V269.083H281.97V274.477H280.039V227.998H271.714V164.939H256.264V160.944H208.247V277.939H190.533V254.633H173.151V196.835H170.154V185.382H125.202V196.835H122.937V262.557H113.414V285.863H93.9677V249.04H68.661V196.835H63.2001C63.2001 196.768 63.2001 196.635 63.2001 196.568C63.2001 194.438 60.6695 192.706 57.1398 191.974C57.2064 190.975 57.3396 190.043 57.3396 188.977C57.3396 183.584 55.7413 179.189 53.8766 179.189C52.0119 179.189 50.4136 183.584 50.4136 188.977C50.4136 190.043 50.4802 191.108 50.6134 192.04C47.2836 192.773 44.8861 194.504 44.8861 196.568C44.8861 196.635 44.8861 196.768 44.8861 196.835H42.089V243.513H38.0932V196.835H33.5647C33.5647 196.768 33.5647 196.635 33.5647 196.568C33.5647 194.438 31.034 192.706 27.5044 191.974C27.571 190.975 27.7042 190.043 27.7042 188.977C27.7042 183.584 26.1059 179.189 24.2411 179.189C22.3764 179.189 20.7781 183.584 20.7781 188.977C20.7781 190.043 20.8447 191.108 20.9779 192.04C17.6481 192.773 15.2506 194.504 15.2506 196.568C15.2506 196.635 15.2506 196.768 15.2506 196.835H11.5212V243.513H0V315.162V352.318V396H1058.89V350.653V315.162V309.236H1044.03ZM918.833 194.904H911.973V188.644H918.833V194.904ZM996.751 194.105H987.827V185.382H996.751V194.105Z" transform="translate(-199)" fill="#E8E8E8"/>
<path d="M1044.03 309.236V297.782H1030.65V294.786H1013.27V285.863H1007.74V194.105H997.883V185.382H1006.07V183.45H987.96V180.787H955.128V205.758H949.8V194.904V180.787H918.899V187.646H900.186V188.644H909.509V194.904H906.712V198.166H900.186V270.348H877.876V283.932H875.612V313.164H870.683V265.487H865.356V260.56H860.76V256.697H854.5V251.171H828.994V256.697H823.866V260.693H820.603V254.434H801.223V260.693H792.632V294.853H789.702V240.117H787.438V234.99H783.442C783.442 234.79 783.442 234.657 783.442 234.457C783.442 227.665 779.38 222.138 774.451 222.138C769.523 222.138 765.461 227.665 765.461 234.457C765.461 234.657 765.461 234.79 765.461 234.99H759.534V214.614H731.896V205.092H733.561V201.829H708.92V198.233H688.875V201.829H684.28H669.295V198.233V192.24H640.725V198.166H618.549V203.094H611.49V208.621H605.229V214.547H598.037V218.809H591.178V224.136H534.77V230.662H524.914V246.709H517.455V248.973H506.8V277.939H503.87V310.767H500.273V250.971H489.751V246.709H482.159V137.105L482.492 136.639L481.16 -8.12844e-06C481.16 -8.12844e-06 481.16 2.26401 479.828 7.59106C478.496 12.9181 477.897 30.8969 477.164 36.5569C476.565 42.0837 468.24 50.3407 458.717 56.6C449.194 62.8592 444.266 63.8581 430.147 77.3089C416.029 90.7597 416.029 98.2842 415.296 101.68C414.763 104.344 414.231 125.852 414.031 134.242H406.705V143.165H400.245V286.129H391.654V265.487H386.726V260.16H378.934V248.973H374.006V226.799H371.742V214.481H366.414C365.349 208.022 362.019 203.294 358.09 203.294C354.227 203.294 350.831 207.955 349.765 214.481H345.436V226.799H342.44V274.477H330.985V277.939H318.798V281.535H309.607V274.477H305.612V269.083H304.28V267.152L293.757 254.367L284.234 267.152V269.083H281.97V274.477H280.039V227.998H271.714V164.939H256.264V160.944H208.247V277.939H190.533V254.633H173.151V196.835H170.154V185.382H125.202V196.835H122.937V262.557H113.414V285.863H93.9677V249.04H68.661V196.835H63.2001C63.2001 196.768 63.2001 196.635 63.2001 196.568C63.2001 194.438 60.6695 192.706 57.1398 191.974C57.2064 190.975 57.3396 190.043 57.3396 188.977C57.3396 183.584 55.7413 179.189 53.8766 179.189C52.0119 179.189 50.4136 183.584 50.4136 188.977C50.4136 190.043 50.4802 191.108 50.6134 192.04C47.2836 192.773 44.8861 194.504 44.8861 196.568C44.8861 196.635 44.8861 196.768 44.8861 196.835H42.089V243.513H38.0932V196.835H33.5647C33.5647 196.768 33.5647 196.635 33.5647 196.568C33.5647 194.438 31.034 192.706 27.5044 191.974C27.571 190.975 27.7042 190.043 27.7042 188.977C27.7042 183.584 26.1059 179.189 24.2411 179.189C22.3764 179.189 20.7781 183.584 20.7781 188.977C20.7781 190.043 20.8447 191.108 20.9779 192.04C17.6481 192.773 15.2506 194.504 15.2506 196.568C15.2506 196.635 15.2506 196.768 15.2506 196.835H11.5212V243.513H0V315.162V352.318V396H1058.89V350.653V315.162V309.236H1044.03ZM918.833 194.904H911.973V188.644H918.833V194.904ZM996.751 194.105H987.827V185.382H996.751V194.105Z" transform="translate(845)" fill="#E8E8E8"/>
</svg>
