<svg width="1366" height="396" viewBox="0 0 1366 396" version="1.1" xmlns="http://www.w3.org/2000/svg" xmlns:xlink="http://www.w3.org/1999/xlink">
<g id="Canvas" fill="none">
<g id="Group 2">
<g id="Group">
<g id="city2">
<g id="jakarta-skyline-black-silhouette">
<path id="Vector" d="M 1044.03 309.236L 1044.03 297.782L 1030.65 297.782L 1030.65 294.786L 1013.27 294.786L 1013.27 285.863L 1007.74 285.863L 1007.74 194.105L 997.883 194.105L 997.883 185.382L 1006.07 185.382L 1006.07 183.45L 987.96 183.45L 987.96 180.787L 955.128 180.787L 955.128 205.758L 949.8 205.758L 949.8 194.904L 949.8 180.787L 918.899 180.787L 918.899 187.646L 900.186 187.646L 900.186 188.644L 909.509 188.644L 909.509 194.904L 906.712 194.904L 906.712 198.166L 900.186 198.166L 900.186 270.348L 877.876 270.348L 877.876 283.932L 875.612 283.932L 875.612 313.164L 870.683 313.164L 870.683 265.487L 865.356 265.487L 865.356 260.56L 860.76 260.56L 860.76 256.697L 854.5 256.697L 854.5 251.171L 828.994 251.171L 828.994 256.697L 823.866 256.697L 823.866 260.693L 820.603 260.693L 820.603 254.434L 801.223 254.434L 801.223 260.693L 792.632 260.693L 792.632 294.853L 789.702 294.853L 789.702 240.117L 787.438 240.117L 787.438 234.99L 783.442 234.99C 783.442 234.79 783.442 234.657 783.442 234.457C 783.442 227.665 779.38 222.138 774.451 222.138C 769.523 222.138 765.461 227.665 765.461 234.457C 765.461 234.657 765.461 234.79 765.461 234.99L 759.534 234.99L 759.534 214.614L 731.896 214.614L 731.896 205.092L 733.561 205.092L 733.561 201.829L 708.92 201.829L 708.92 198.233L 688.875 198.233L 688.875 201.829L 684.28 201.829L 669.295 201.829L 669.295 198.233L 669.295 192.24L 640.725 192.24L 640.725 198.166L 618.549 198.166L 618.549 203.094L 611.49 203.094L 611.49 208.621L 605.23 208.621L 605.23 214.547L 598.037 214.547L 598.037 218.809L 591.178 218.809L 591.178 224.136L 534.77 224.136L 534.77 230.662L 524.914 230.662L 524.914 246.709L 517.455 246.709L 517.455 248.973L 506.8 248.973L 506.8 277.939L 503.87 277.939L 503.87 310.767L 500.273 310.767L 500.273 250.971L 489.751 250.971L 489.751 246.709L 482.159 246.709L 482.159 137.105L 482.492 136.639L 481.16 -8.12844e-06C 481.16 -8.12844e-06 481.16 2.26401 479.828 7.59106C 478.496 12.9181 477.897 30.8969 477.164 36.5569C 476.565 42.0837 468.24 50.3407 458.717 56.6C 449.194 62.8592 444.266 63.8581 430.147 77.3089C 416.029 90.7597 416.029 98.2842 415.296 101.68C 414.763 104.344 414.231 125.852 414.031 134.242L 406.705 134.242L 406.705 143.165L 400.245 143.165L 400.245 286.129L 391.654 286.129L 391.654 265.487L 386.726 265.487L 386.726 260.16L 378.934 260.16L 378.934 248.973L 374.006 248.973L 374.006 226.799L 371.742 226.799L 371.742 214.481L 366.414 214.481C 365.349 208.022 362.019 203.294 358.09 203.294C 354.227 203.294 350.831 207.955 349.765 214.481L 345.436 214.481L 345.436 226.799L 342.44 226.799L 342.44 274.477L 330.985 274.477L 330.985 277.939L 318.798 277.939L 318.798 281.535L 309.607 281.535L 309.607 274.477L 305.612 274.477L 305.612 269.083L 304.28 269.083L 304.28 267.152L 293.757 254.367L 284.234 267.152L 284.234 269.083L 281.97 269.083L 281.97 274.477L 280.039 274.477L 280.039 227.998L 271.714 227.998L 271.714 164.939L 256.264 164.939L 256.264 160.944L 208.247 160.944L 208.247 277.939L 190.533 277.939L 190.533 254.633L 173.151 254.633L 173.151 196.835L 170.154 196.835L 170.154 185.382L 125.202 185.382L 125.202 196.835L 122.937 196.835L 122.937 262.557L 113.414 262.557L 113.414 285.863L 93.9677 285.863L 93.9677 249.04L 68.661 249.04L 68.661 196.835L 63.2001 196.835C 63.2001 196.768 63.2001 196.635 63.2001 196.568C 63.2001 194.438 60.6695 192.706 57.1398 191.974C 57.2064 190.975 57.3396 190.043 57.3396 188.977C 57.3396 183.584 55.7413 179.189 53.8766 179.189C 52.0119 179.189 50.4136 183.584 50.4136 188.977C 50.4136 190.043 50.4802 191.108 50.6134 192.04C 47.2836 192.773 44.8861 194.504 44.8861 196.568C 44.8861 196.635 44.8861 196.768 44.8861 196.835L 42.089 196.835L 42.089 243.513L 38.0932 243.513L 38.0932 196.835L 33.5647 196.835C 33.5647 196.768 33.5647 196.635 33.5647 196.568C 33.5647 194.438 31.034 192.706 27.5044 191.974C 27.571 190.975 27.7042 190.043 27.7042 188.977C 27.7042 183.584 26.1059 179.189 24.2411 179.189C 22.3764 179.189 20.7781 183.584 20.7781 188.977C 20.7781 190.043 20.8447 191.108 20.9779 192.04C 17.6481 192.773 15.2506 194.504 15.2506 196.568C 15.2506 196.635 15.2506 196.768 15.2506 196.835L 11.5212 196.835L 11.5212 243.513L 0 243.513L 0 315.162L 0 352.318L 0 396L 1058.89 396L 1058.89 350.653L 1058.89 315.162L 1058.89 309.236L 1044.03 309.236ZM 918.833 194.904L 911.973 194.904L 911.973 188.644L 918.833 188.644L 918.833 194.904ZM 996.751 194.105L 987.827 194.105L 987.827 185.382L 996.751 185.382L 996.751 194.105Z" fill="#C66200"/>
</g>
</g>
<g id="jakarta-skyline-black-silhouette_2">
<path id="Vector_2" d="M 1044.03 309.236L 1044.03 297.782L 1030.65 297.782L 1030.65 294.786L 1013.27 294.786L 1013.27 285.863L 1007.74 285.863L 1007.74 194.105L 997.883 194.105L 997.883 185.382L 1006.07 185.382L 1006.07 183.45L 987.96 183.45L 987.96 180.787L 955.128 180.787L 955.128 205.758L 949.8 205.758L 949.8 194.904L 949.8 180.787L 918.899 180.787L 918.899 187.646L 900.186 187.646L 900.186 188.644L 909.509 188.644L 909.509 194.904L 906.712 194.904L 906.712 198.166L 900.186 198.166L 900.186 270.348L 877.876 270.348L 877.876 283.932L 875.612 283.932L 875.612 313.164L 870.683 313.164L 870.683 265.487L 865.356 265.487L 865.356 260.56L 860.76 260.56L 860.76 256.697L 854.5 256.697L 854.5 251.171L 828.994 251.171L 828.994 256.697L 823.866 256.697L 823.866 260.693L 820.603 260.693L 820.603 254.434L 801.223 254.434L 801.223 260.693L 792.632 260.693L 792.632 294.853L 789.702 294.853L 789.702 240.117L 787.438 240.117L 787.438 234.99L 783.442 234.99C 783.442 234.79 783.442 234.657 783.442 234.457C 783.442 227.665 779.38 222.138 774.451 222.138C 769.523 222.138 765.461 227.665 765.461 234.457C 765.461 234.657 765.461 234.79 765.461 234.99L 759.534 234.99L 759.534 214.614L 731.896 214.614L 731.896 205.092L 733.561 205.092L 733.561 201.829L 708.92 201.829L 708.92 198.233L 688.875 198.233L 688.875 201.829L 684.28 201.829L 669.295 201.829L 669.295 198.233L 669.295 192.24L 640.725 192.24L 640.725 198.166L 618.549 198.166L 618.549 203.094L 611.49 203.094L 611.49 208.621L 605.23 208.621L 605.23 214.547L 598.037 214.547L 598.037 218.809L 591.178 218.809L 591.178 224.136L 534.77 224.136L 534.77 230.662L 524.914 230.662L 524.914 246.709L 517.455 246.709L 517.455 248.973L 506.8 248.973L 506.8 277.939L 503.87 277.939L 503.87 310.767L 500.273 310.767L 500.273 250.971L 489.751 250.971L 489.751 246.709L 482.159 246.709L 482.159 137.105L 482.492 136.639L 481.16 -8.12844e-06C 481.16 -8.12844e-06 481.16 2.26401 479.828 7.59106C 478.496 12.9181 477.897 30.8969 477.164 36.5569C 476.565 42.0837 468.24 50.3407 458.717 56.6C 449.194 62.8592 444.266 63.8581 430.147 77.3089C 416.029 90.7597 416.029 98.2842 415.296 101.68C 414.763 104.344 414.231 125.852 414.031 134.242L 406.705 134.242L 406.705 143.165L 400.245 143.165L 400.245 286.129L 391.654 286.129L 391.654 265.487L 386.726 265.487L 386.726 260.16L 378.934 260.16L 378.934 248.973L 374.006 248.973L 374.006 226.799L 371.742 226.799L 371.742 214.481L 366.414 214.481C 365.349 208.022 362.019 203.294 358.09 203.294C 354.227 203.294 350.831 207.955 349.765 214.481L 345.436 214.481L 345.436 226.799L 342.44 226.799L 342.44 274.477L 330.985 274.477L 330.985 277.939L 318.798 277.939L 318.798 281.535L 309.607 281.535L 309.607 274.477L 305.612 274.477L 305.612 269.083L 304.28 269.083L 304.28 267.152L 293.757 254.367L 284.234 267.152L 284.234 269.083L 281.97 269.083L 281.97 274.477L 280.039 274.477L 280.039 227.998L 271.714 227.998L 271.714 164.939L 256.264 164.939L 256.264 160.944L 208.247 160.944L 208.247 277.939L 190.533 277.939L 190.533 254.633L 173.151 254.633L 173.151 196.835L 170.154 196.835L 170.154 185.382L 125.202 185.382L 125.202 196.835L 122.937 196.835L 122.937 262.557L 113.414 262.557L 113.414 285.863L 93.9677 285.863L 93.9677 249.04L 68.661 249.04L 68.661 196.835L 63.2001 196.835C 63.2001 196.768 63.2001 196.635 63.2001 196.568C 63.2001 194.438 60.6695 192.706 57.1398 191.974C 57.2064 190.975 57.3396 190.043 57.3396 188.977C 57.3396 183.584 55.7413 179.189 53.8766 179.189C 52.0119 179.189 50.4136 183.584 50.4136 188.977C 50.4136 190.043 50.4802 191.108 50.6134 192.04C 47.2836 192.773 44.8861 194.504 44.8861 196.568C 44.8861 196.635 44.8861 196.768 44.8861 196.835L 42.089 196.835L 42.089 243.513L 38.0932 243.513L 38.0932 196.835L 33.5647 196.835C 33.5647 196.768 33.5647 196.635 33.5647 196.568C 33.5647 194.438 31.034 192.706 27.5044 191.974C 27.571 190.975 27.7042 190.043 27.7042 188.977C 27.7042 183.584 26.1059 179.189 24.2411 179.189C 22.3764 179.189 20.7781 183.584 20.7781 188.977C 20.7781 190.043 20.8447 191.108 20.9779 192.04C 17.6481 192.773 15.2506 194.504 15.2506 196.568C 15.2506 196.635 15.2506 196.768 15.2506 196.835L 11.5212 196.835L 11.5212 243.513L 0 243.513L 0 315.162L 0 352.318L 0 396L 1058.89 396L 1058.89 350.653L 1058.89 315.162L 1058.89 309.236L 1044.03 309.236ZM 918.833 194.904L 911.973 194.904L 911.973 188.644L 918.833 188.644L 918.833 194.904ZM 996.751 194.105L 987.827 194.105L 987.827 185.382L 996.751 185.382L 996.751 194.105Z" transform="translate(1044 0)" fill="#C66200"/>
</g>
</g>
</g>
</g>
</svg>
