<?xml version="1.0" standalone="no"?><!-- Generator: Gravit.io --><svg xmlns="http://www.w3.org/2000/svg" xmlns:xlink="http://www.w3.org/1999/xlink" style="isolation:isolate" viewBox="515.404 130.804 311.783 94.196" width="311.783" height="94.196"><g id="logo"><path d=" M 611.448 187.23 L 611.448 187.23 L 611.448 187.23 Q 611.448 186.702 611.829 186.292 L 611.829 186.292 L 611.829 186.292 Q 612.21 185.882 612.21 185.413 L 612.21 185.413 L 612.21 185.413 Q 612.21 185.296 611.976 185.12 L 611.976 185.12 L 611.976 185.12 Q 611.741 184.945 611.683 184.886 L 611.683 184.886 L 611.683 184.886 Q 611.097 184.007 611.038 182.894 L 611.038 182.894 L 611.038 182.894 Q 610.979 181.781 610.979 180.784 L 610.979 180.784 L 610.979 180.784 Q 610.979 175.394 611.038 170.12 L 611.038 170.12 L 611.038 170.12 Q 611.097 164.847 611.097 159.456 L 611.097 159.456 L 611.097 159.456 Q 610.511 159.456 609.983 159.72 L 609.983 159.72 L 609.983 159.72 Q 609.456 159.984 608.87 160.306 L 608.87 160.306 L 608.87 160.306 Q 608.284 160.628 607.64 160.892 L 607.64 160.892 L 607.64 160.892 Q 606.995 161.156 606.233 161.156 L 606.233 161.156 L 605.296 161.156 L 605.296 161.156 Q 605.179 160.98 604.71 160.833 L 604.71 160.833 L 604.71 160.833 Q 604.241 160.687 604.241 160.452 L 604.241 160.452 L 604.241 158.695 L 604.241 158.695 Q 604.534 158.519 604.739 158.197 L 604.739 158.197 L 604.739 158.197 Q 604.944 157.874 605.061 157.64 L 605.061 157.64 L 610.979 154.71 L 611.214 154.417 L 611.214 154.417 Q 611.097 152.777 611.39 151.781 L 611.39 151.781 L 611.39 151.781 Q 611.683 150.784 613.44 150.784 L 613.44 150.784 L 613.44 150.784 Q 613.909 150.784 614.466 150.96 L 614.466 150.96 L 614.466 150.96 Q 615.022 151.136 615.52 151.429 L 615.52 151.429 L 615.52 151.429 Q 616.018 151.722 616.282 152.191 L 616.282 152.191 L 616.282 152.191 Q 616.546 152.659 616.429 153.245 L 616.429 153.245 L 616.429 153.245 Q 619.358 153.363 622.229 153.685 L 622.229 153.685 L 622.229 153.685 Q 625.101 154.007 627.386 155.091 L 627.386 155.091 L 627.386 155.091 Q 629.671 156.175 631.106 158.284 L 631.106 158.284 L 631.106 158.284 Q 632.542 160.394 632.542 164.085 L 632.542 164.085 L 632.542 164.085 Q 632.542 167.425 631.253 170.765 L 631.253 170.765 L 631.253 170.765 Q 629.964 174.105 627.561 176.507 L 627.561 176.507 L 616.429 187.581 L 616.429 187.581 Q 615.608 188.402 615.052 188.753 L 615.052 188.753 L 615.052 188.753 Q 614.495 189.105 613.44 189.105 L 613.44 189.105 L 613.44 189.105 Q 612.561 189.105 612.005 188.607 L 612.005 188.607 L 612.005 188.607 Q 611.448 188.109 611.448 187.23 Z  M 616.429 157.64 L 616.429 181.956 L 616.194 181.956 L 616.663 181.663 L 616.663 181.663 Q 616.722 181.605 617.102 181.283 L 617.102 181.283 L 617.102 181.283 Q 617.483 180.96 617.952 180.521 L 617.952 180.521 L 617.952 180.521 Q 618.421 180.081 618.89 179.671 L 618.89 179.671 L 618.89 179.671 Q 619.358 179.261 619.651 178.968 L 619.651 178.968 L 619.651 178.968 Q 620.999 177.562 622.493 175.98 L 622.493 175.98 L 622.493 175.98 Q 623.987 174.398 625.218 172.611 L 625.218 172.611 L 625.218 172.611 Q 626.448 170.824 627.239 168.861 L 627.239 168.861 L 627.239 168.861 Q 628.03 166.898 628.03 164.73 L 628.03 164.73 L 628.03 164.73 Q 628.03 162.679 627.268 161.243 L 627.268 161.243 L 627.268 161.243 Q 626.507 159.808 625.247 158.9 L 625.247 158.9 L 625.247 158.9 Q 623.987 157.992 622.288 157.581 L 622.288 157.581 L 622.288 157.581 Q 620.589 157.171 618.655 157.171 L 618.655 157.171 L 618.655 157.171 Q 618.479 157.171 617.63 157.259 L 617.63 157.259 L 617.63 157.259 Q 616.78 157.347 616.429 157.64 L 616.429 157.64 L 616.429 157.64 Z  M 635.12 178.734 L 635.12 178.734 L 635.12 178.734 Q 635.179 178.382 635.12 176.859 L 635.12 176.859 L 635.12 176.859 Q 635.061 175.335 635.091 173.079 L 635.091 173.079 L 635.091 173.079 Q 635.12 170.824 635.208 168.128 L 635.208 168.128 L 635.208 168.128 Q 635.296 165.433 635.618 162.679 L 635.618 162.679 L 635.618 162.679 Q 635.94 159.925 636.556 157.376 L 636.556 157.376 L 636.556 157.376 Q 637.171 154.827 638.167 152.952 L 638.167 152.952 L 638.167 152.952 Q 638.518 151.37 639.866 150.755 L 639.866 150.755 L 639.866 150.755 Q 641.214 150.14 643.675 150.023 L 643.675 150.023 L 643.675 150.023 Q 645.257 150.023 646.37 150.843 L 646.37 150.843 L 646.37 150.843 Q 647.483 151.663 648.274 152.865 L 648.274 152.865 L 648.274 152.865 Q 649.065 154.066 649.651 155.472 L 649.651 155.472 L 649.651 155.472 Q 650.237 156.878 650.706 157.992 L 650.706 157.992 L 650.706 158.284 L 650.706 158.284 Q 651.116 159.456 651.321 161.771 L 651.321 161.771 L 651.321 161.771 Q 651.526 164.085 651.614 166.634 L 651.614 166.634 L 651.614 166.634 Q 651.702 169.183 651.702 171.527 L 651.702 171.527 L 651.702 171.527 Q 651.702 173.87 651.702 175.101 L 651.702 175.101 L 651.702 175.101 Q 651.702 176.859 651.233 179.29 L 651.233 179.29 L 651.233 179.29 Q 650.765 181.722 649.739 183.89 L 649.739 183.89 L 649.739 183.89 Q 648.714 186.058 647.073 187.581 L 647.073 187.581 L 647.073 187.581 Q 645.433 189.105 643.147 189.105 L 643.147 189.105 L 643.147 189.105 Q 641.214 189.105 639.72 188.109 L 639.72 188.109 L 639.72 188.109 Q 638.226 187.113 637.2 185.56 L 637.2 185.56 L 637.2 185.56 Q 636.175 184.007 635.647 182.191 L 635.647 182.191 L 635.647 182.191 Q 635.12 180.374 635.12 178.734 Z  M 640.804 182.659 L 640.804 182.659 L 640.804 182.659 Q 640.921 183.304 641.477 183.978 L 641.477 183.978 L 641.477 183.978 Q 642.034 184.652 642.796 184.652 L 642.796 184.652 L 643.265 184.652 L 643.265 184.652 Q 645.726 182.425 646.487 179.525 L 646.487 179.525 L 646.487 179.525 Q 647.249 176.624 647.249 173.402 L 647.249 173.402 L 647.249 173.402 Q 647.249 172.64 647.19 171.058 L 647.19 171.058 L 647.19 171.058 Q 647.132 169.476 646.985 167.513 L 646.985 167.513 L 646.985 167.513 Q 646.839 165.55 646.604 163.382 L 646.604 163.382 L 646.604 163.382 Q 646.37 161.214 646.018 159.31 L 646.018 159.31 L 646.018 159.31 Q 645.667 157.406 645.198 155.999 L 645.198 155.999 L 645.198 155.999 Q 644.729 154.593 644.085 154.066 L 644.085 154.066 L 644.085 154.066 Q 644.026 154.124 643.938 154.3 L 643.938 154.3 L 643.938 154.3 Q 643.851 154.476 643.851 154.534 L 643.851 154.534 L 643.851 154.534 Q 642.62 156.058 641.624 158.695 L 641.624 158.695 L 641.624 158.695 Q 640.628 161.331 640.13 164.935 L 640.13 164.935 L 640.13 164.935 Q 639.632 168.538 639.72 173.021 L 639.72 173.021 L 639.72 173.021 Q 639.808 177.503 640.804 182.659 Z  M 657.62 180.726 L 657.62 180.726 L 657.62 180.726 Q 656.976 180.433 656.419 179.788 L 656.419 179.788 L 656.419 179.788 Q 655.862 179.144 655.862 178.499 L 655.862 178.499 L 655.862 178.499 Q 655.862 177.679 656.36 177.093 L 656.36 177.093 L 656.36 177.093 Q 656.858 176.507 656.858 175.687 L 656.858 175.687 L 656.858 175.687 Q 656.858 174.339 656.536 172.992 L 656.536 172.992 L 656.536 172.992 Q 656.214 171.644 656.39 170.238 L 656.39 170.238 L 654.69 153.714 L 654.69 153.597 L 654.69 153.597 Q 654.69 152.894 655.276 152.132 L 655.276 152.132 L 655.276 152.132 Q 655.862 151.37 656.624 151.488 L 656.624 151.488 L 656.624 151.488 Q 656.8 151.488 657.122 151.575 L 657.122 151.575 L 657.122 151.575 Q 657.444 151.663 657.854 151.81 L 657.854 151.81 L 657.854 151.81 Q 658.265 151.956 658.587 152.132 L 658.587 152.132 L 658.587 152.132 Q 658.909 152.308 659.085 152.484 L 659.085 152.484 L 659.085 152.484 Q 659.202 152.601 659.495 153.187 L 659.495 153.187 L 659.495 153.187 Q 659.788 153.773 659.847 153.949 L 659.847 153.949 L 659.847 153.949 Q 660.315 155.648 660.286 157.728 L 660.286 157.728 L 660.286 157.728 Q 660.257 159.808 660.374 161.624 L 660.374 161.624 L 660.374 161.624 Q 660.433 162.269 660.52 163.646 L 660.52 163.646 L 660.52 163.646 Q 660.608 165.023 660.755 166.4 L 660.755 166.4 L 660.755 166.4 Q 660.901 167.777 661.077 168.802 L 661.077 168.802 L 661.077 168.802 Q 661.253 169.827 661.429 169.827 L 661.429 169.827 L 661.546 169.769 L 661.546 169.769 Q 664.534 166.781 666.79 163.587 L 666.79 163.587 L 666.79 163.587 Q 669.046 160.394 670.511 156.468 L 670.511 156.468 L 670.511 156.468 Q 670.511 156.351 670.628 155.999 L 670.628 155.999 L 670.628 155.999 Q 670.745 155.648 670.862 155.267 L 670.862 155.267 L 670.862 155.267 Q 670.979 154.886 671.067 154.505 L 671.067 154.505 L 671.067 154.505 Q 671.155 154.124 671.214 153.949 L 671.214 153.949 L 671.214 153.949 Q 671.214 153.949 671.272 153.597 L 671.272 153.597 L 671.272 153.597 Q 671.331 153.245 671.448 152.865 L 671.448 152.865 L 671.448 152.865 Q 671.565 152.484 671.712 152.132 L 671.712 152.132 L 671.712 152.132 Q 671.858 151.781 672.034 151.781 L 672.034 151.781 L 674.729 151.781 L 674.729 151.781 Q 675.14 151.781 675.403 152.074 L 675.403 152.074 L 675.403 152.074 Q 675.667 152.367 675.843 152.777 L 675.843 152.777 L 675.843 152.777 Q 676.018 153.187 676.077 153.568 L 676.077 153.568 L 676.077 153.568 Q 676.136 153.949 676.136 154.183 L 676.136 154.183 L 676.136 154.183 Q 676.136 154.242 676.048 154.447 L 676.048 154.447 L 676.048 154.447 Q 675.96 154.652 675.901 154.71 L 675.901 154.71 L 675.901 155.179 L 675.901 155.179 Q 675.433 156.82 674.905 158.167 L 674.905 158.167 L 674.905 158.167 Q 674.378 159.515 673.763 160.804 L 673.763 160.804 L 673.763 160.804 Q 673.147 162.093 672.386 163.382 L 672.386 163.382 L 672.386 163.382 Q 671.624 164.671 670.745 166.136 L 670.745 166.136 L 670.745 166.136 Q 670.452 166.605 669.808 167.161 L 669.808 167.161 L 669.808 167.161 Q 669.163 167.718 668.987 168.363 L 668.987 168.363 L 663.597 174.749 L 662.835 176.273 L 663.069 176.273 L 663.069 176.273 Q 665.589 175.628 667.903 175.335 L 667.903 175.335 L 667.903 175.335 Q 670.218 175.042 672.503 174.925 L 672.503 174.925 L 672.503 174.925 Q 674.788 174.808 677.132 174.808 L 677.132 174.808 L 677.132 174.808 Q 679.476 174.808 682.112 174.749 L 682.112 174.749 L 682.112 174.749 Q 682.171 174.749 682.522 174.72 L 682.522 174.72 L 682.522 174.72 Q 682.874 174.691 683.226 174.632 L 683.226 174.632 L 683.226 174.632 Q 683.577 174.574 683.899 174.544 L 683.899 174.544 L 683.899 174.544 Q 684.222 174.515 684.339 174.515 L 684.339 174.515 L 684.866 174.515 L 684.866 174.515 Q 685.511 174.515 686.302 174.749 L 686.302 174.749 L 686.302 174.749 Q 687.093 174.984 687.327 175.804 L 687.327 175.804 L 687.327 175.804 Q 687.561 176.449 687.122 177.181 L 687.122 177.181 L 687.122 177.181 Q 686.683 177.913 686.097 178.206 L 686.097 178.206 L 686.097 178.206 Q 685.921 178.265 685.481 178.324 L 685.481 178.324 L 685.481 178.324 Q 685.042 178.382 684.573 178.47 L 684.573 178.47 L 684.573 178.47 Q 684.104 178.558 683.694 178.646 L 683.694 178.646 L 683.694 178.646 Q 683.284 178.734 683.108 178.734 L 683.108 178.734 L 682.347 178.734 L 682.347 178.734 Q 681.116 178.792 679.27 178.792 L 679.27 178.792 L 679.27 178.792 Q 677.425 178.792 675.726 178.851 L 675.726 178.851 L 675.726 178.851 Q 673.733 178.909 671.507 178.968 L 671.507 178.968 L 662.835 180.726 L 662.835 181.077 L 662.835 181.077 Q 662.835 182.367 663.216 183.597 L 663.216 183.597 L 663.216 183.597 Q 663.597 184.827 663.597 186.117 L 663.597 186.117 L 663.597 186.117 Q 663.597 187.288 663.011 188.197 L 663.011 188.197 L 663.011 188.197 Q 662.425 189.105 661.077 189.105 L 661.077 189.105 L 661.077 189.105 Q 660.374 189.105 659.554 188.343 L 659.554 188.343 L 659.554 188.343 Q 658.733 187.581 658.558 186.878 L 658.558 186.878 L 657.62 180.726 L 657.62 180.726 Z  M 689.319 185.413 L 689.319 185.413 L 689.319 185.413 Q 689.319 181.898 689.788 178.441 L 689.788 178.441 L 689.788 178.441 Q 690.257 174.984 690.608 171.527 L 690.608 171.527 L 690.608 171.527 Q 690.608 171.351 690.667 170.736 L 690.667 170.736 L 690.667 170.736 Q 690.726 170.12 690.813 169.417 L 690.813 169.417 L 690.813 169.417 Q 690.901 168.714 690.989 168.099 L 690.989 168.099 L 690.989 168.099 Q 691.077 167.484 691.077 167.308 L 691.077 167.308 L 691.077 167.074 L 693.538 148.792 L 693.538 148.792 Q 693.421 147.62 693.919 146.712 L 693.919 146.712 L 693.919 146.712 Q 694.417 145.804 695.765 145.804 L 695.765 145.804 L 695.765 145.804 Q 697.229 145.628 698.196 146.185 L 698.196 146.185 L 698.196 146.185 Q 699.163 146.742 699.808 147.62 L 699.808 147.62 L 699.808 147.62 Q 700.452 148.499 700.862 149.554 L 700.862 149.554 L 700.862 149.554 Q 701.272 150.609 701.741 151.488 L 701.741 151.488 L 701.741 151.488 Q 702.034 152.308 702.474 153.421 L 702.474 153.421 L 702.474 153.421 Q 702.913 154.534 703.528 156.234 L 703.528 156.234 L 703.528 156.234 Q 704.143 157.933 704.993 160.394 L 704.993 160.394 L 704.993 160.394 Q 705.843 162.855 706.956 166.37 L 706.956 166.37 L 707.19 166.605 L 707.19 166.605 Q 707.601 166.37 708.743 165.843 L 708.743 165.843 L 708.743 165.843 Q 709.886 165.316 711.145 164.73 L 711.145 164.73 L 711.145 164.73 Q 712.405 164.144 713.518 163.617 L 713.518 163.617 L 713.518 163.617 Q 714.632 163.089 715.101 162.913 L 715.101 162.913 L 715.101 162.913 Q 715.159 162.796 715.423 162.708 L 715.423 162.708 L 715.423 162.708 Q 715.686 162.62 715.804 162.562 L 715.804 162.562 L 715.921 162.562 L 715.921 162.562 Q 716.507 162.562 716.8 163.001 L 716.8 163.001 L 716.8 163.001 Q 717.093 163.441 717.093 163.851 L 717.093 163.851 L 717.093 163.851 Q 717.093 164.495 716.8 164.964 L 716.8 164.964 L 716.8 164.964 Q 716.507 165.433 716.126 165.814 L 716.126 165.814 L 716.126 165.814 Q 715.745 166.195 715.306 166.546 L 715.306 166.546 L 715.306 166.546 Q 714.866 166.898 714.632 167.308 L 714.632 167.308 L 708.831 170.238 L 708.831 170.238 Q 708.597 170.531 708.597 170.706 L 708.597 170.706 L 708.597 170.706 Q 708.597 171.175 709.095 172.171 L 709.095 172.171 L 709.095 172.171 Q 709.593 173.167 709.886 173.753 L 709.886 173.753 L 709.886 173.753 Q 710.061 174.105 710.472 175.042 L 710.472 175.042 L 710.472 175.042 Q 710.882 175.98 711.351 176.976 L 711.351 176.976 L 711.351 176.976 Q 711.819 177.972 712.259 178.88 L 712.259 178.88 L 712.259 178.88 Q 712.698 179.788 712.874 180.14 L 712.874 180.14 L 712.874 180.316 L 712.874 180.316 Q 712.874 182.425 710.765 182.425 L 710.765 182.425 L 710.765 182.425 Q 710.12 182.425 709.417 182.279 L 709.417 182.279 L 709.417 182.279 Q 708.714 182.132 708.362 181.429 L 708.362 181.429 L 704.436 173.05 L 703.909 173.05 L 703.909 173.05 Q 701.683 174.749 699.163 176.39 L 699.163 176.39 L 699.163 176.39 Q 696.643 178.031 694.007 179.202 L 694.007 179.202 L 694.007 179.202 Q 693.597 181.312 693.509 183.48 L 693.509 183.48 L 693.509 183.48 Q 693.421 185.648 693.538 187.816 L 693.538 187.816 L 693.538 187.816 Q 693.069 188.46 692.601 188.783 L 692.601 188.783 L 692.601 188.783 Q 692.132 189.105 691.311 189.105 L 691.311 189.105 L 691.311 189.105 Q 690.491 189.105 690.081 188.724 L 690.081 188.724 L 690.081 188.724 Q 689.671 188.343 689.495 187.786 L 689.495 187.786 L 689.495 187.786 Q 689.319 187.23 689.319 186.585 L 689.319 186.585 L 689.319 186.585 Q 689.319 185.941 689.319 185.413 Z  M 694.534 172.523 L 694.534 174.046 L 694.534 174.046 Q 696.292 173.343 697.962 172.171 L 697.962 172.171 L 697.962 172.171 Q 699.632 170.999 701.155 170.003 L 701.155 170.003 L 701.155 170.003 Q 701.331 169.886 701.595 169.769 L 701.595 169.769 L 701.595 169.769 Q 701.858 169.652 702.093 169.476 L 702.093 169.476 L 702.093 169.476 Q 702.327 169.3 702.679 169.066 L 702.679 169.066 L 702.679 168.597 L 697.288 153.245 L 697.054 153.011 L 697.054 153.011 Q 696.878 153.363 696.614 155.003 L 696.614 155.003 L 696.614 155.003 Q 696.351 156.644 696.028 159.251 L 696.028 159.251 L 696.028 159.251 Q 695.706 161.859 695.325 165.257 L 695.325 165.257 L 695.325 165.257 Q 694.944 168.656 694.534 172.523 L 694.534 172.523 L 694.534 172.523 Z  M 723.069 187.113 L 722.132 175.511 L 722.132 175.511 Q 721.78 174.749 721.575 174.281 L 721.575 174.281 L 721.575 174.281 Q 721.37 173.812 721.37 173.167 L 721.37 173.167 L 721.37 173.167 Q 721.37 172.64 721.517 172.2 L 721.517 172.2 L 721.517 172.2 Q 721.663 171.761 721.663 171.234 L 721.663 171.234 L 721.663 171.234 Q 721.663 169.945 721.575 168.831 L 721.575 168.831 L 721.575 168.831 Q 721.487 167.718 721.37 166.37 L 721.37 166.37 L 721.37 166.37 Q 721.311 166.195 720.96 166.077 L 720.96 166.077 L 720.96 166.077 Q 720.608 165.96 720.198 165.755 L 720.198 165.755 L 720.198 165.755 Q 719.788 165.55 719.466 165.14 L 719.466 165.14 L 719.466 165.14 Q 719.143 164.73 719.143 163.968 L 719.143 163.968 L 719.143 163.968 Q 719.143 163.265 719.466 162.767 L 719.466 162.767 L 719.466 162.767 Q 719.788 162.269 720.14 161.829 L 720.14 161.829 L 720.14 161.829 Q 720.491 161.39 720.813 160.892 L 720.813 160.892 L 720.813 160.892 Q 721.136 160.394 721.136 159.691 L 721.136 159.691 L 721.136 159.691 Q 721.136 159.398 721.077 158.607 L 721.077 158.607 L 721.077 158.607 Q 721.018 157.816 720.989 156.937 L 720.989 156.937 L 720.989 156.937 Q 720.96 156.058 720.931 155.267 L 720.931 155.267 L 720.931 155.267 Q 720.901 154.476 720.901 154.183 L 720.901 154.183 L 720.901 154.066 L 720.901 153.949 L 720.901 153.949 Q 721.136 153.421 721.282 153.07 L 721.282 153.07 L 721.282 153.07 Q 721.429 152.718 721.604 152.542 L 721.604 152.542 L 721.604 152.542 Q 721.78 152.367 722.073 152.279 L 722.073 152.279 L 722.073 152.279 Q 722.366 152.191 722.835 152.191 L 722.835 152.191 L 722.835 152.191 Q 724.065 152.191 724.651 152.659 L 724.651 152.659 L 724.651 152.659 Q 725.237 153.128 725.472 153.743 L 725.472 153.743 L 725.472 153.743 Q 725.706 154.359 725.765 154.886 L 725.765 154.886 L 725.765 154.886 Q 725.823 155.413 726.058 155.472 L 726.058 155.472 L 730.276 151.781 L 730.511 151.781 L 730.511 151.781 Q 732.561 150.433 734.847 149.7 L 734.847 149.7 L 734.847 149.7 Q 737.132 148.968 739.651 148.968 L 739.651 148.968 L 739.651 148.968 Q 740.413 148.968 741.497 149.144 L 741.497 149.144 L 741.497 149.144 Q 742.581 149.32 743.548 149.759 L 743.548 149.759 L 743.548 149.759 Q 744.515 150.199 745.188 150.902 L 745.188 150.902 L 745.188 150.902 Q 745.862 151.605 745.862 152.659 L 745.862 152.659 L 745.862 152.659 Q 745.862 153.831 745.569 155.062 L 745.569 155.062 L 745.569 155.062 Q 745.276 156.292 744.778 157.493 L 744.778 157.493 L 744.778 157.493 Q 744.28 158.695 743.606 159.779 L 743.606 159.779 L 743.606 159.779 Q 742.933 160.863 742.171 161.624 L 742.171 161.624 L 742.171 161.624 Q 741.878 162.269 738.421 164.906 L 738.421 164.906 L 738.421 164.906 Q 734.964 167.542 728.108 172.757 L 728.108 172.757 L 756.233 174.515 L 756.233 174.515 Q 756.819 174.574 757.845 174.603 L 757.845 174.603 L 757.845 174.603 Q 758.87 174.632 759.837 174.808 L 759.837 174.808 L 759.837 174.808 Q 760.804 174.984 761.507 175.482 L 761.507 175.482 L 761.507 175.482 Q 762.21 175.98 762.21 176.976 L 762.21 176.976 L 762.21 176.976 Q 762.21 177.503 762.063 177.825 L 762.063 177.825 L 762.063 177.825 Q 761.917 178.148 761.712 178.353 L 761.712 178.353 L 761.712 178.353 Q 761.507 178.558 761.243 178.734 L 761.243 178.734 L 761.243 178.734 Q 760.979 178.909 760.745 179.202 L 760.745 179.202 L 759.749 179.202 L 758.753 179.202 L 758.753 179.202 Q 757.581 179.085 756.321 178.909 L 756.321 178.909 L 756.321 178.909 Q 755.061 178.734 753.392 178.499 L 753.392 178.499 L 753.392 178.499 Q 751.722 178.265 749.495 178.031 L 749.495 178.031 L 749.495 178.031 Q 747.268 177.796 744.163 177.62 L 744.163 177.62 L 744.163 177.62 Q 741.058 177.445 736.927 177.327 L 736.927 177.327 L 736.927 177.327 Q 732.796 177.21 727.347 177.21 L 727.347 177.21 L 727.347 177.21 Q 727.288 177.21 727.2 177.386 L 727.2 177.386 L 727.2 177.386 Q 727.112 177.562 727.112 177.679 L 727.112 177.679 L 727.112 177.679 Q 727.112 179.906 727.493 182.044 L 727.493 182.044 L 727.493 182.044 Q 727.874 184.183 727.874 186.292 L 727.874 186.292 L 727.874 186.292 Q 727.874 186.702 727.786 187.2 L 727.786 187.2 L 727.786 187.2 Q 727.698 187.699 727.464 188.138 L 727.464 188.138 L 727.464 188.138 Q 727.229 188.577 726.878 188.87 L 726.878 188.87 L 726.878 188.87 Q 726.526 189.163 725.999 189.163 L 725.999 189.163 L 725.999 189.163 Q 725.647 189.163 725.179 189.017 L 725.179 189.017 L 725.179 189.017 Q 724.71 188.87 724.27 188.577 L 724.27 188.577 L 724.27 188.577 Q 723.831 188.284 723.479 187.933 L 723.479 187.933 L 723.479 187.933 Q 723.128 187.581 723.069 187.113 L 723.069 187.113 L 723.069 187.113 Z  M 726.058 161.624 L 726.058 162.562 L 726.058 162.562 Q 726.058 164.027 726.116 165.316 L 726.116 165.316 L 726.116 165.316 Q 726.175 166.605 726.292 168.128 L 726.292 168.128 L 726.468 168.128 L 726.468 168.128 Q 726.526 168.128 726.761 168.011 L 726.761 168.011 L 726.761 168.011 Q 726.995 167.894 727.933 167.279 L 727.933 167.279 L 727.933 167.279 Q 728.87 166.663 730.804 165.345 L 730.804 165.345 L 730.804 165.345 Q 732.737 164.027 736.253 161.624 L 736.253 161.624 L 736.253 161.624 Q 736.956 161.214 737.776 160.218 L 737.776 160.218 L 737.776 160.218 Q 738.597 159.222 739.3 158.05 L 739.3 158.05 L 739.3 158.05 Q 740.003 156.878 740.472 155.736 L 740.472 155.736 L 740.472 155.736 Q 740.94 154.593 740.94 153.831 L 740.94 153.831 L 740.94 153.831 Q 740.94 153.245 740.384 153.245 L 740.384 153.245 L 740.384 153.245 Q 739.827 153.245 739.417 153.245 L 739.417 153.245 L 739.417 153.245 Q 738.538 153.245 737.425 153.538 L 737.425 153.538 L 737.425 153.538 Q 736.311 153.831 734.759 154.71 L 734.759 154.71 L 734.759 154.71 Q 733.206 155.589 731.067 157.23 L 731.067 157.23 L 731.067 157.23 Q 728.929 158.87 726.058 161.624 L 726.058 161.624 L 726.058 161.624 Z " fill-rule="evenodd" fill="rgb(255,255,255)"/><path d=" M 773.334 209.88 L 773.334 218.556 L 773.334 218.556 Q 773.334 220.176 772.542 220.986 L 772.542 220.986 L 772.542 220.986 Q 771.75 221.796 770.094 221.904 L 770.094 221.904 L 769.284 221.958 L 769.176 220.824 L 769.986 220.77 L 769.986 220.77 Q 771.876 220.644 771.876 218.754 L 771.876 218.754 L 771.876 209.88 L 773.334 209.88 L 773.334 209.88 Z  M 771.732 207.72 L 771.732 206.082 L 773.496 206.082 L 773.496 207.72 L 771.732 207.72 L 771.732 207.72 Z  M 779.616 209.664 L 779.616 209.664 Q 781.29 209.664 782.109 210.519 L 782.109 210.519 L 782.109 210.519 Q 782.928 211.374 782.928 213.12 L 782.928 213.12 L 782.928 218.646 L 781.506 218.646 L 781.506 217.152 L 781.506 217.152 Q 781.164 217.926 780.462 218.349 L 780.462 218.349 L 780.462 218.349 Q 779.76 218.772 778.842 218.772 L 778.842 218.772 L 778.842 218.772 Q 777.996 218.772 777.285 218.43 L 777.285 218.43 L 777.285 218.43 Q 776.574 218.088 776.16 217.476 L 776.16 217.476 L 776.16 217.476 Q 775.746 216.864 775.746 216.126 L 775.746 216.126 L 775.746 216.126 Q 775.746 215.136 776.25 214.587 L 776.25 214.587 L 776.25 214.587 Q 776.754 214.038 777.906 213.795 L 777.906 213.795 L 777.906 213.795 Q 779.058 213.552 781.11 213.552 L 781.11 213.552 L 781.506 213.552 L 781.506 212.958 L 781.506 212.958 Q 781.506 211.86 781.056 211.365 L 781.056 211.365 L 781.056 211.365 Q 780.606 210.87 779.598 210.87 L 779.598 210.87 L 779.598 210.87 Q 778.086 210.87 776.592 211.806 L 776.592 211.806 L 776.106 210.744 L 776.106 210.744 Q 776.79 210.258 777.753 209.961 L 777.753 209.961 L 777.753 209.961 Q 778.716 209.664 779.616 209.664 L 779.616 209.664 L 779.616 209.664 Z  M 779.04 217.62 L 779.04 217.62 Q 780.12 217.62 780.813 216.891 L 780.813 216.891 L 780.813 216.891 Q 781.506 216.162 781.506 215.01 L 781.506 215.01 L 781.506 214.488 L 781.182 214.488 L 781.182 214.488 Q 779.598 214.488 778.77 214.623 L 778.77 214.623 L 778.77 214.623 Q 777.942 214.758 777.591 215.073 L 777.591 215.073 L 777.591 215.073 Q 777.24 215.388 777.24 216 L 777.24 216 L 777.24 216 Q 777.24 216.702 777.753 217.161 L 777.753 217.161 L 777.753 217.161 Q 778.266 217.62 779.04 217.62 L 779.04 217.62 L 779.04 217.62 Z  M 788.634 214.092 L 793.404 218.646 L 791.514 218.646 L 787.05 214.452 L 787.05 218.646 L 785.592 218.646 L 785.592 205.956 L 787.05 205.956 L 787.05 213.858 L 791.136 209.898 L 792.99 209.898 L 788.634 214.092 L 788.634 214.092 Z  M 798.156 209.664 L 798.156 209.664 Q 799.83 209.664 800.649 210.519 L 800.649 210.519 L 800.649 210.519 Q 801.468 211.374 801.468 213.12 L 801.468 213.12 L 801.468 218.646 L 800.046 218.646 L 800.046 217.152 L 800.046 217.152 Q 799.704 217.926 799.002 218.349 L 799.002 218.349 L 799.002 218.349 Q 798.3 218.772 797.382 218.772 L 797.382 218.772 L 797.382 218.772 Q 796.536 218.772 795.825 218.43 L 795.825 218.43 L 795.825 218.43 Q 795.114 218.088 794.7 217.476 L 794.7 217.476 L 794.7 217.476 Q 794.286 216.864 794.286 216.126 L 794.286 216.126 L 794.286 216.126 Q 794.286 215.136 794.79 214.587 L 794.79 214.587 L 794.79 214.587 Q 795.294 214.038 796.446 213.795 L 796.446 213.795 L 796.446 213.795 Q 797.598 213.552 799.65 213.552 L 799.65 213.552 L 800.046 213.552 L 800.046 212.958 L 800.046 212.958 Q 800.046 211.86 799.596 211.365 L 799.596 211.365 L 799.596 211.365 Q 799.146 210.87 798.138 210.87 L 798.138 210.87 L 798.138 210.87 Q 796.626 210.87 795.132 211.806 L 795.132 211.806 L 794.646 210.744 L 794.646 210.744 Q 795.33 210.258 796.293 209.961 L 796.293 209.961 L 796.293 209.961 Q 797.256 209.664 798.156 209.664 L 798.156 209.664 L 798.156 209.664 Z  M 797.58 217.62 L 797.58 217.62 Q 798.66 217.62 799.353 216.891 L 799.353 216.891 L 799.353 216.891 Q 800.046 216.162 800.046 215.01 L 800.046 215.01 L 800.046 214.488 L 799.722 214.488 L 799.722 214.488 Q 798.138 214.488 797.31 214.623 L 797.31 214.623 L 797.31 214.623 Q 796.482 214.758 796.131 215.073 L 796.131 215.073 L 796.131 215.073 Q 795.78 215.388 795.78 216 L 795.78 216 L 795.78 216 Q 795.78 216.702 796.293 217.161 L 796.293 217.161 L 796.293 217.161 Q 796.806 217.62 797.58 217.62 L 797.58 217.62 L 797.58 217.62 Z  M 808.974 209.664 L 809.1 210.924 L 808.146 211.014 L 808.146 211.014 Q 806.796 211.14 806.193 211.86 L 806.193 211.86 L 806.193 211.86 Q 805.59 212.58 805.59 213.642 L 805.59 213.642 L 805.59 218.646 L 804.132 218.646 L 804.132 209.88 L 805.554 209.88 L 805.554 211.41 L 805.554 211.41 Q 806.292 209.88 808.452 209.7 L 808.452 209.7 L 808.974 209.664 L 808.974 209.664 Z  M 814.338 217.602 L 814.338 217.602 Q 814.734 217.602 815.13 217.548 L 815.13 217.548 L 815.058 218.7 L 815.058 218.7 Q 814.644 218.772 814.158 218.772 L 814.158 218.772 L 814.158 218.772 Q 812.574 218.772 811.773 217.944 L 811.773 217.944 L 811.773 217.944 Q 810.972 217.116 810.972 215.64 L 810.972 215.64 L 810.972 211.032 L 809.262 211.032 L 809.262 209.88 L 810.972 209.88 L 810.972 207.216 L 812.43 207.216 L 812.43 209.88 L 814.914 209.88 L 814.914 211.032 L 812.43 211.032 L 812.43 215.532 L 812.43 215.532 Q 812.43 217.602 814.338 217.602 L 814.338 217.602 L 814.338 217.602 Z  M 820.17 209.664 L 820.17 209.664 Q 821.844 209.664 822.663 210.519 L 822.663 210.519 L 822.663 210.519 Q 823.482 211.374 823.482 213.12 L 823.482 213.12 L 823.482 218.646 L 822.06 218.646 L 822.06 217.152 L 822.06 217.152 Q 821.718 217.926 821.016 218.349 L 821.016 218.349 L 821.016 218.349 Q 820.314 218.772 819.396 218.772 L 819.396 218.772 L 819.396 218.772 Q 818.55 218.772 817.839 218.43 L 817.839 218.43 L 817.839 218.43 Q 817.128 218.088 816.714 217.476 L 816.714 217.476 L 816.714 217.476 Q 816.3 216.864 816.3 216.126 L 816.3 216.126 L 816.3 216.126 Q 816.3 215.136 816.804 214.587 L 816.804 214.587 L 816.804 214.587 Q 817.308 214.038 818.46 213.795 L 818.46 213.795 L 818.46 213.795 Q 819.612 213.552 821.664 213.552 L 821.664 213.552 L 822.06 213.552 L 822.06 212.958 L 822.06 212.958 Q 822.06 211.86 821.61 211.365 L 821.61 211.365 L 821.61 211.365 Q 821.16 210.87 820.152 210.87 L 820.152 210.87 L 820.152 210.87 Q 818.64 210.87 817.146 211.806 L 817.146 211.806 L 816.66 210.744 L 816.66 210.744 Q 817.344 210.258 818.307 209.961 L 818.307 209.961 L 818.307 209.961 Q 819.27 209.664 820.17 209.664 L 820.17 209.664 L 820.17 209.664 Z  M 819.594 217.62 L 819.594 217.62 Q 820.674 217.62 821.367 216.891 L 821.367 216.891 L 821.367 216.891 Q 822.06 216.162 822.06 215.01 L 822.06 215.01 L 822.06 214.488 L 821.736 214.488 L 821.736 214.488 Q 820.152 214.488 819.324 214.623 L 819.324 214.623 L 819.324 214.623 Q 818.496 214.758 818.145 215.073 L 818.145 215.073 L 818.145 215.073 Q 817.794 215.388 817.794 216 L 817.794 216 L 817.794 216 Q 817.794 216.702 818.307 217.161 L 818.307 217.161 L 818.307 217.161 Q 818.82 217.62 819.594 217.62 L 819.594 217.62 L 819.594 217.62 Z  M 743.31 205.956 L 744.768 205.956 L 744.768 218.646 L 743.31 218.646 L 743.31 217.044 L 743.31 217.044 Q 742.914 217.872 742.149 218.322 L 742.149 218.322 L 742.149 218.322 Q 741.384 218.772 740.358 218.772 L 740.358 218.772 L 740.358 218.772 Q 739.206 218.772 738.324 218.196 L 738.324 218.196 L 738.324 218.196 Q 737.442 217.62 736.956 216.585 L 736.956 216.585 L 736.956 216.585 Q 736.47 215.55 736.47 214.182 L 736.47 214.182 L 736.47 214.182 Q 736.47 212.832 736.956 211.806 L 736.956 211.806 L 736.956 211.806 Q 737.442 210.78 738.324 210.222 L 738.324 210.222 L 738.324 210.222 Q 739.206 209.664 740.358 209.664 L 740.358 209.664 L 740.358 209.664 Q 741.384 209.664 742.149 210.114 L 742.149 210.114 L 742.149 210.114 Q 742.914 210.564 743.31 211.392 L 743.31 211.392 L 743.31 205.956 L 743.31 205.956 Z  M 740.646 217.566 L 740.646 217.566 Q 741.924 217.566 742.617 216.693 L 742.617 216.693 L 742.617 216.693 Q 743.31 215.82 743.31 214.218 L 743.31 214.218 L 743.31 214.218 Q 743.31 212.616 742.617 211.752 L 742.617 211.752 L 742.617 211.752 Q 741.924 210.888 740.646 210.888 L 740.646 210.888 L 740.646 210.888 Q 739.368 210.888 738.657 211.752 L 738.657 211.752 L 738.657 211.752 Q 737.946 212.616 737.946 214.182 L 737.946 214.182 L 737.946 214.182 Q 737.946 215.784 738.657 216.675 L 738.657 216.675 L 738.657 216.675 Q 739.368 217.566 740.646 217.566 L 740.646 217.566 L 740.646 217.566 Z  M 751.032 209.664 L 751.032 209.664 Q 752.706 209.664 753.525 210.519 L 753.525 210.519 L 753.525 210.519 Q 754.344 211.374 754.344 213.12 L 754.344 213.12 L 754.344 218.646 L 752.922 218.646 L 752.922 217.152 L 752.922 217.152 Q 752.58 217.926 751.878 218.349 L 751.878 218.349 L 751.878 218.349 Q 751.176 218.772 750.258 218.772 L 750.258 218.772 L 750.258 218.772 Q 749.412 218.772 748.701 218.43 L 748.701 218.43 L 748.701 218.43 Q 747.99 218.088 747.576 217.476 L 747.576 217.476 L 747.576 217.476 Q 747.162 216.864 747.162 216.126 L 747.162 216.126 L 747.162 216.126 Q 747.162 215.136 747.666 214.587 L 747.666 214.587 L 747.666 214.587 Q 748.17 214.038 749.322 213.795 L 749.322 213.795 L 749.322 213.795 Q 750.474 213.552 752.526 213.552 L 752.526 213.552 L 752.922 213.552 L 752.922 212.958 L 752.922 212.958 Q 752.922 211.86 752.472 211.365 L 752.472 211.365 L 752.472 211.365 Q 752.022 210.87 751.014 210.87 L 751.014 210.87 L 751.014 210.87 Q 749.502 210.87 748.008 211.806 L 748.008 211.806 L 747.522 210.744 L 747.522 210.744 Q 748.206 210.258 749.169 209.961 L 749.169 209.961 L 749.169 209.961 Q 750.132 209.664 751.032 209.664 L 751.032 209.664 L 751.032 209.664 Z  M 750.456 217.62 L 750.456 217.62 Q 751.536 217.62 752.229 216.891 L 752.229 216.891 L 752.229 216.891 Q 752.922 216.162 752.922 215.01 L 752.922 215.01 L 752.922 214.488 L 752.598 214.488 L 752.598 214.488 Q 751.014 214.488 750.186 214.623 L 750.186 214.623 L 750.186 214.623 Q 749.358 214.758 749.007 215.073 L 749.007 215.073 L 749.007 215.073 Q 748.656 215.388 748.656 216 L 748.656 216 L 748.656 216 Q 748.656 216.702 749.169 217.161 L 749.169 217.161 L 749.169 217.161 Q 749.682 217.62 750.456 217.62 L 750.456 217.62 L 750.456 217.62 Z  M 761.418 209.664 L 761.418 209.664 Q 764.568 209.664 764.568 213.138 L 764.568 213.138 L 764.568 218.646 L 763.11 218.646 L 763.11 213.228 L 763.11 213.228 Q 763.11 212.004 762.633 211.446 L 762.633 211.446 L 762.633 211.446 Q 762.156 210.888 761.112 210.888 L 761.112 210.888 L 761.112 210.888 Q 759.906 210.888 759.186 211.626 L 759.186 211.626 L 759.186 211.626 Q 758.466 212.364 758.466 213.624 L 758.466 213.624 L 758.466 218.646 L 757.008 218.646 L 757.008 209.88 L 758.448 209.88 L 758.448 211.32 L 758.448 211.32 Q 758.88 210.51 759.654 210.087 L 759.654 210.087 L 759.654 210.087 Q 760.428 209.664 761.418 209.664 L 761.418 209.664 L 761.418 209.664 Z  M 701.028 218.646 L 699.534 218.646 L 698.13 215.388 L 691.506 215.388 L 690.102 218.646 L 688.59 218.646 L 694.17 205.956 L 695.448 205.956 L 701.028 218.646 L 701.028 218.646 Z  M 694.818 207.666 L 692.028 214.164 L 697.608 214.164 L 694.818 207.666 L 694.818 207.666 Z  M 707.544 209.664 L 707.67 210.924 L 706.716 211.014 L 706.716 211.014 Q 705.366 211.14 704.763 211.86 L 704.763 211.86 L 704.763 211.86 Q 704.16 212.58 704.16 213.642 L 704.16 213.642 L 704.16 218.646 L 702.702 218.646 L 702.702 209.88 L 704.124 209.88 L 704.124 211.41 L 704.124 211.41 Q 704.862 209.88 707.022 209.7 L 707.022 209.7 L 707.544 209.664 L 707.544 209.664 Z  M 712.026 218.772 L 712.026 218.772 Q 709.812 218.772 708.516 217.638 L 708.516 217.638 L 709.002 216.558 L 709.002 216.558 Q 709.704 217.116 710.433 217.359 L 710.433 217.359 L 710.433 217.359 Q 711.162 217.602 712.08 217.602 L 712.08 217.602 L 712.08 217.602 Q 713.052 217.602 713.565 217.269 L 713.565 217.269 L 713.565 217.269 Q 714.078 216.936 714.078 216.306 L 714.078 216.306 L 714.078 216.306 Q 714.078 215.784 713.736 215.478 L 713.736 215.478 L 713.736 215.478 Q 713.394 215.172 712.602 214.992 L 712.602 214.992 L 711.126 214.65 L 711.126 214.65 Q 710.01 214.398 709.416 213.786 L 709.416 213.786 L 709.416 213.786 Q 708.822 213.174 708.822 212.274 L 708.822 212.274 L 708.822 212.274 Q 708.822 211.104 709.74 210.384 L 709.74 210.384 L 709.74 210.384 Q 710.658 209.664 712.188 209.664 L 712.188 209.664 L 712.188 209.664 Q 713.106 209.664 713.934 209.961 L 713.934 209.961 L 713.934 209.961 Q 714.762 210.258 715.32 210.816 L 715.32 210.816 L 714.834 211.878 L 714.834 211.878 Q 713.628 210.852 712.188 210.852 L 712.188 210.852 L 712.188 210.852 Q 711.27 210.852 710.757 211.203 L 710.757 211.203 L 710.757 211.203 Q 710.244 211.554 710.244 212.184 L 710.244 212.184 L 710.244 212.184 Q 710.244 212.706 710.559 213.021 L 710.559 213.021 L 710.559 213.021 Q 710.874 213.336 711.576 213.498 L 711.576 213.498 L 713.07 213.858 L 713.07 213.858 Q 714.294 214.146 714.888 214.731 L 714.888 214.731 L 714.888 214.731 Q 715.482 215.316 715.482 216.252 L 715.482 216.252 L 715.482 216.252 Q 715.482 217.404 714.555 218.088 L 714.555 218.088 L 714.555 218.088 Q 713.628 218.772 712.026 218.772 L 712.026 218.772 L 712.026 218.772 Z  M 719.154 218.646 L 717.696 218.646 L 717.696 209.88 L 719.154 209.88 L 719.154 218.646 L 719.154 218.646 Z  M 717.552 207.72 L 717.552 206.082 L 719.316 206.082 L 719.316 207.72 L 717.552 207.72 L 717.552 207.72 Z  M 726.282 209.664 L 726.282 209.664 Q 727.434 209.664 728.316 210.24 L 728.316 210.24 L 728.316 210.24 Q 729.198 210.816 729.684 211.851 L 729.684 211.851 L 729.684 211.851 Q 730.17 212.886 730.17 214.254 L 730.17 214.254 L 730.17 214.254 Q 730.17 215.622 729.684 216.639 L 729.684 216.639 L 729.684 216.639 Q 729.198 217.656 728.325 218.214 L 728.325 218.214 L 728.325 218.214 Q 727.452 218.772 726.282 218.772 L 726.282 218.772 L 726.282 218.772 Q 725.256 218.772 724.491 218.322 L 724.491 218.322 L 724.491 218.322 Q 723.726 217.872 723.33 217.044 L 723.33 217.044 L 723.33 221.886 L 721.872 221.886 L 721.872 209.88 L 723.33 209.88 L 723.33 211.392 L 723.33 211.392 Q 723.726 210.564 724.491 210.114 L 724.491 210.114 L 724.491 210.114 Q 725.256 209.664 726.282 209.664 L 726.282 209.664 L 726.282 209.664 Z  M 725.994 217.566 L 725.994 217.566 Q 727.272 217.566 727.974 216.702 L 727.974 216.702 L 727.974 216.702 Q 728.676 215.838 728.676 214.254 L 728.676 214.254 L 728.676 214.254 Q 728.676 212.67 727.974 211.779 L 727.974 211.779 L 727.974 211.779 Q 727.272 210.888 725.994 210.888 L 725.994 210.888 L 725.994 210.888 Q 724.716 210.888 724.023 211.752 L 724.023 211.752 L 724.023 211.752 Q 723.33 212.616 723.33 214.218 L 723.33 214.218 L 723.33 214.218 Q 723.33 215.82 724.023 216.693 L 724.023 216.693 L 724.023 216.693 Q 724.716 217.566 725.994 217.566 L 725.994 217.566 L 725.994 217.566 Z  M 607.752 218.646 L 607.752 205.956 L 612.018 205.956 L 612.018 205.956 Q 615.06 205.956 616.725 207.603 L 616.725 207.603 L 616.725 207.603 Q 618.39 209.25 618.39 212.292 L 618.39 212.292 L 618.39 212.292 Q 618.39 215.334 616.725 216.99 L 616.725 216.99 L 616.725 216.99 Q 615.06 218.646 612.018 218.646 L 612.018 218.646 L 607.752 218.646 L 607.752 218.646 Z  M 609.228 217.386 L 611.928 217.386 L 611.928 217.386 Q 616.86 217.386 616.86 212.292 L 616.86 212.292 L 616.86 212.292 Q 616.86 207.216 611.928 207.216 L 611.928 207.216 L 609.228 207.216 L 609.228 217.386 L 609.228 217.386 Z  M 624.474 218.772 L 624.474 218.772 Q 623.232 218.772 622.287 218.214 L 622.287 218.214 L 622.287 218.214 Q 621.342 217.656 620.829 216.621 L 620.829 216.621 L 620.829 216.621 Q 620.316 215.586 620.316 214.218 L 620.316 214.218 L 620.316 214.218 Q 620.316 212.85 620.829 211.815 L 620.829 211.815 L 620.829 211.815 Q 621.342 210.78 622.287 210.222 L 622.287 210.222 L 622.287 210.222 Q 623.232 209.664 624.474 209.664 L 624.474 209.664 L 624.474 209.664 Q 625.716 209.664 626.67 210.222 L 626.67 210.222 L 626.67 210.222 Q 627.624 210.78 628.137 211.815 L 628.137 211.815 L 628.137 211.815 Q 628.65 212.85 628.65 214.218 L 628.65 214.218 L 628.65 214.218 Q 628.65 215.586 628.137 216.621 L 628.137 216.621 L 628.137 216.621 Q 627.624 217.656 626.67 218.214 L 626.67 218.214 L 626.67 218.214 Q 625.716 218.772 624.474 218.772 L 624.474 218.772 L 624.474 218.772 Z  M 624.474 217.566 L 624.474 217.566 Q 625.77 217.566 626.463 216.711 L 626.463 216.711 L 626.463 216.711 Q 627.156 215.856 627.156 214.218 L 627.156 214.218 L 627.156 214.218 Q 627.156 212.616 626.454 211.743 L 626.454 211.743 L 626.454 211.743 Q 625.752 210.87 624.474 210.87 L 624.474 210.87 L 624.474 210.87 Q 623.196 210.87 622.494 211.743 L 622.494 211.743 L 622.494 211.743 Q 621.792 212.616 621.792 214.218 L 621.792 214.218 L 621.792 214.218 Q 621.792 215.838 622.485 216.702 L 622.485 216.702 L 622.485 216.702 Q 623.178 217.566 624.474 217.566 L 624.474 217.566 L 624.474 217.566 Z  M 633.87 214.092 L 638.64 218.646 L 636.75 218.646 L 632.286 214.452 L 632.286 218.646 L 630.828 218.646 L 630.828 205.956 L 632.286 205.956 L 632.286 213.858 L 636.372 209.898 L 638.226 209.898 L 633.87 214.092 L 633.87 214.092 Z  M 645.75 209.88 L 647.208 209.88 L 647.208 218.646 L 645.786 218.646 L 645.786 217.152 L 645.786 217.152 Q 645.372 217.944 644.625 218.358 L 644.625 218.358 L 644.625 218.358 Q 643.878 218.772 642.942 218.772 L 642.942 218.772 L 642.942 218.772 Q 641.376 218.772 640.584 217.899 L 640.584 217.899 L 640.584 217.899 Q 639.792 217.026 639.792 215.316 L 639.792 215.316 L 639.792 209.88 L 641.25 209.88 L 641.25 215.28 L 641.25 215.28 Q 641.25 216.45 641.718 216.999 L 641.718 216.999 L 641.718 216.999 Q 642.186 217.548 643.194 217.548 L 643.194 217.548 L 643.194 217.548 Q 644.346 217.548 645.048 216.801 L 645.048 216.801 L 645.048 216.801 Q 645.75 216.054 645.75 214.83 L 645.75 214.83 L 645.75 209.88 L 645.75 209.88 Z  M 659.682 209.664 L 659.682 209.664 Q 662.598 209.664 662.598 213.138 L 662.598 213.138 L 662.598 218.646 L 661.14 218.646 L 661.14 213.21 L 661.14 213.21 Q 661.14 212.004 660.717 211.446 L 660.717 211.446 L 660.717 211.446 Q 660.294 210.888 659.358 210.888 L 659.358 210.888 L 659.358 210.888 Q 658.26 210.888 657.63 211.626 L 657.63 211.626 L 657.63 211.626 Q 657 212.364 657 213.642 L 657 213.642 L 657 218.646 L 655.542 218.646 L 655.542 213.21 L 655.542 213.21 Q 655.542 211.986 655.11 211.437 L 655.11 211.437 L 655.11 211.437 Q 654.678 210.888 653.742 210.888 L 653.742 210.888 L 653.742 210.888 Q 652.644 210.888 652.014 211.626 L 652.014 211.626 L 652.014 211.626 Q 651.384 212.364 651.384 213.642 L 651.384 213.642 L 651.384 218.646 L 649.926 218.646 L 649.926 209.88 L 651.366 209.88 L 651.366 211.266 L 651.366 211.266 Q 651.762 210.492 652.464 210.078 L 652.464 210.078 L 652.464 210.078 Q 653.166 209.664 654.084 209.664 L 654.084 209.664 L 654.084 209.664 Q 656.118 209.664 656.766 211.392 L 656.766 211.392 L 656.766 211.392 Q 657.144 210.582 657.918 210.123 L 657.918 210.123 L 657.918 210.123 Q 658.692 209.664 659.682 209.664 L 659.682 209.664 L 659.682 209.664 Z  M 672.606 213.948 L 672.606 214.488 L 666.198 214.488 L 666.198 214.488 Q 666.27 216.018 667.026 216.801 L 667.026 216.801 L 667.026 216.801 Q 667.782 217.584 669.168 217.584 L 669.168 217.584 L 669.168 217.584 Q 670.698 217.584 671.976 216.54 L 671.976 216.54 L 672.462 217.602 L 672.462 217.602 Q 671.886 218.142 670.986 218.457 L 670.986 218.457 L 670.986 218.457 Q 670.086 218.772 669.15 218.772 L 669.15 218.772 L 669.15 218.772 Q 667.098 218.772 665.919 217.566 L 665.919 217.566 L 665.919 217.566 Q 664.74 216.36 664.74 214.236 L 664.74 214.236 L 664.74 214.236 Q 664.74 212.886 665.262 211.851 L 665.262 211.851 L 665.262 211.851 Q 665.784 210.816 666.729 210.24 L 666.729 210.24 L 666.729 210.24 Q 667.674 209.664 668.88 209.664 L 668.88 209.664 L 668.88 209.664 Q 670.626 209.664 671.616 210.807 L 671.616 210.807 L 671.616 210.807 Q 672.606 211.95 672.606 213.948 L 672.606 213.948 L 672.606 213.948 Z  M 668.898 210.798 L 668.898 210.798 Q 667.746 210.798 667.053 211.518 L 667.053 211.518 L 667.053 211.518 Q 666.36 212.238 666.234 213.552 L 666.234 213.552 L 671.328 213.552 L 671.328 213.552 Q 671.292 212.22 670.662 211.509 L 670.662 211.509 L 670.662 211.509 Q 670.032 210.798 668.898 210.798 L 668.898 210.798 L 668.898 210.798 Z  M 679.158 209.664 L 679.158 209.664 Q 682.308 209.664 682.308 213.138 L 682.308 213.138 L 682.308 218.646 L 680.85 218.646 L 680.85 213.228 L 680.85 213.228 Q 680.85 212.004 680.373 211.446 L 680.373 211.446 L 680.373 211.446 Q 679.896 210.888 678.852 210.888 L 678.852 210.888 L 678.852 210.888 Q 677.646 210.888 676.926 211.626 L 676.926 211.626 L 676.926 211.626 Q 676.206 212.364 676.206 213.624 L 676.206 213.624 L 676.206 218.646 L 674.748 218.646 L 674.748 209.88 L 676.188 209.88 L 676.188 211.32 L 676.188 211.32 Q 676.62 210.51 677.394 210.087 L 677.394 210.087 L 677.394 210.087 Q 678.168 209.664 679.158 209.664 L 679.158 209.664 L 679.158 209.664 Z " fill-rule="evenodd" fill="rgb(255,255,255)"/><path d=" M 523.502 140.016 C 519.04 140.016 515.404 143.652 515.404 148.114 L 515.404 200.754 L 523.502 200.754 L 523.502 148.114 L 563.994 148.114 L 563.994 140.016 L 523.502 140.016 Z  M 539.699 156.213 C 535.237 156.213 531.6 159.849 531.6 164.311 L 531.6 212.902 C 531.6 217.364 535.237 221 539.699 221 L 576.142 221 C 580.604 221 584.24 217.364 584.24 212.902 L 584.24 164.311 C 584.24 159.849 580.604 156.213 576.142 156.213 L 539.699 156.213 Z  M 539.699 164.311 L 576.142 164.311 L 576.142 212.902 L 539.699 212.902 L 539.699 164.311 Z " fill="rgb(255,255,255)"/></g></svg>