<?xml version="1.0" encoding="utf-8"?>
<!-- Generator: Adobe Illustrator 18.0.0, SVG Export Plug-In . SVG Version: 6.00 Build 0)  -->
<!DOCTYPE svg PUBLIC "-//W3C//DTD SVG 1.1//EN" "http://www.w3.org/Graphics/SVG/1.1/DTD/svg11.dtd">
<svg version="1.1" id="Слой_2" xmlns="http://www.w3.org/2000/svg" xmlns:xlink="http://www.w3.org/1999/xlink" x="0px" y="0px"
	 viewBox="0 255 1590 601.9" enable-background="new 0 255 1590 601.9" xml:space="preserve">
<path fill="#000000"    d="M1567.7,726.7v-17.2h-20.1v-4.5h-26.1v-13.4h-8.3
	V553.8h-14.8v-13.1h12.3v-2.9h-27.2v-4h-49.3v37.5h-8V555v-21.2h-46.4v10.3h-28.1v1.5h14v9.4h-4.2v4.9h-9.8v108.4h-33.5v20.4h-3.4
	v43.9h-7.4V661h-8v-7.4h-6.9v-5.8h-9.4v-8.3h-38.3v8.3h-7.7v6h-4.9v-9.4h-29.1v9.4h-12.9v51.3h-4.4v-82.2h-3.4v-7.7h-6
	c0-0.3,0-0.5,0-0.8c0-10.2-6.1-18.5-13.5-18.5s-13.5,8.3-13.5,18.5c0,0.3,0,0.5,0,0.8h-8.9v-30.6h-41.5v-14.3h2.5v-4.9h-37v-5.4
	h-30.1v5.4h-6.9H1005v-5.4V551h-42.9v8.9h-33.3v7.4h-10.6v8.3h-9.4v8.9H898v6.4h-10.3v8H803v9.8h-14.8v24.1H777v3.4h-16v43.5h-4.4
	v49.3h-5.4v-89.8h-15.8v-6.4H724V468.2l0.5-0.7l-2-205.2c0,0,0,3.4-2,11.4s-2.9,35-4,43.5c-0.9,8.3-13.4,20.7-27.7,30.1
	c-14.3,9.4-21.7,10.9-42.9,31.1s-21.2,31.5-22.3,36.6c-0.8,4-1.6,36.3-1.9,48.9h-11v13.4H601v214.7h-12.9V661h-7.4v-8H569v-16.8
	h-7.4v-33.3h-3.4v-18.5h-8c-1.6-9.7-6.6-16.8-12.5-16.8c-5.8,0-10.9,7-12.5,16.8h-6.5v18.5h-4.5v71.6H497v5.2h-18.3v5.4h-13.8v-10.6
	h-6v-8.1h-2v-2.9l-15.8-19.2l-14.3,19.2v2.9h-3.4v8.1h-2.9v-69.8h-12.5v-94.7h-23.2v-6h-72.1v175.7h-26.6v-35h-26.1v-86.8h-4.5
	v-17.2H188v17.2h-3.4v98.7h-14.3v35h-29.2v-55.3h-38v-78.4h-8.2c0-0.1,0-0.3,0-0.4c0-3.2-3.8-5.8-9.1-6.9c0.1-1.5,0.3-2.9,0.3-4.5
	c0-8.1-2.4-14.7-5.2-14.7s-5.2,6.6-5.2,14.7c0,1.6,0.1,3.2,0.3,4.6c-5,1.1-8.6,3.7-8.6,6.8c0,0.1,0,0.3,0,0.4h-4.2V628h-6v-70.1
	h-6.8c0-0.1,0-0.3,0-0.4c0-3.2-3.8-5.8-9.1-6.9c0.1-1.5,0.3-2.9,0.3-4.5c0-8.1-2.4-14.7-5.2-14.7s-5.2,6.6-5.2,14.7
	c0,1.6,0.1,3.2,0.3,4.6c-5,1.1-8.6,3.7-8.6,6.8c0,0.1,0,0.3,0,0.4h-5.6V628H0v107.6v55.8v65.6h1590v-68.1v-53.3v-8.9L1567.7,726.7
	L1567.7,726.7z M1379.7,555h-10.3v-9.4h10.3V555z M1496.7,553.8h-13.4v-13.1h13.4V553.8z"/>
</svg>
