<svg width="1366" height="447" viewBox="0 0 1366 447" fill="none" xmlns="http://www.w3.org/2000/svg">
<path d="M1146.63 339.627V327.048H1131.93V323.758H1112.84V313.958H1106.76V213.181H1095.94V203.601H1104.94V201.48H1085.04V198.555H1048.98V225.979H1043.13V214.059V198.555H1009.2V206.087H988.643V207.184H998.882V214.059H995.811V217.642H988.643V296.918H964.141V311.837H961.654V343.942H956.241V291.579H950.39V286.167H945.343V281.926H938.468V275.856H910.455V281.926H904.823V286.314H901.24V279.439H879.956V286.314H870.52V323.831H867.302V263.716H864.816V258.085H860.427C860.427 257.865 860.427 257.719 860.427 257.5C860.427 250.04 855.966 243.97 850.553 243.97C845.141 243.97 840.679 250.04 840.679 257.5C840.679 257.719 840.679 257.865 840.679 258.085H834.17V235.706H803.816V225.248H805.645V221.665H778.583V217.715H756.567V221.665H751.521H735.064V217.715V211.134H703.687V217.642H679.331V223.054H671.578V229.124H664.703V235.633H656.803V240.313H649.27V246.164H587.32V253.331H576.495V270.956H568.303V273.442H556.601V305.255H553.382V341.309H549.433V275.636H537.877V270.956H529.539V150.58L529.904 150.068L528.442 -8.92731e-06C528.442 -8.92731e-06 528.442 2.48651 526.979 8.33711C525.516 14.1877 524.858 33.9335 524.053 40.1497C523.395 46.2197 514.252 55.2882 503.793 62.1626C493.334 69.0371 487.922 70.134 472.416 84.9068C456.91 99.6796 456.91 107.944 456.105 111.673C455.52 114.599 454.935 138.22 454.716 147.435H446.67V157.235H439.576V314.25H430.14V291.579H424.728V285.729H416.171V273.442H410.758V249.089H408.271V235.56H402.42C401.25 228.466 397.593 223.273 393.278 223.273C389.035 223.273 385.305 228.393 384.135 235.56H379.381V249.089H376.089V301.452H363.509V305.255H350.125V309.204H340.031V301.452H335.643V295.528H334.18V293.408L322.624 279.366L312.164 293.408V295.528H309.678V301.452H307.557V250.406H298.414V181.149H281.445V176.761H228.711V305.255H209.256V279.659H190.166V216.18H186.874V203.601H137.505V216.18H135.018V288.361H124.559V313.958H103.202V273.516H75.4081V216.18H69.4105C69.4105 216.107 69.4105 215.96 69.4105 215.887C69.4105 213.547 66.6312 211.645 62.7547 210.841C62.8279 209.744 62.9741 208.72 62.9741 207.55C62.9741 201.626 61.2188 196.8 59.1708 196.8C57.1229 196.8 55.3675 201.626 55.3675 207.55C55.3675 208.72 55.4406 209.89 55.5869 210.914C51.9299 211.719 49.2968 213.62 49.2968 215.887C49.2968 215.96 49.2968 216.107 49.2968 216.18H46.2249V267.446H41.8365V216.18H36.8629C36.8629 216.107 36.8629 215.96 36.8629 215.887C36.8629 213.547 34.0836 211.645 30.2071 210.841C30.2802 209.744 30.4265 208.72 30.4265 207.55C30.4265 201.626 28.6712 196.8 26.6232 196.8C24.5753 196.8 22.8199 201.626 22.8199 207.55C22.8199 208.72 22.893 209.89 23.0393 210.914C19.3823 211.719 16.7492 213.62 16.7492 215.887C16.7492 215.96 16.7492 216.107 16.7492 216.18H12.6533V267.446H0V346.136V386.944V434.919H1162.94V385.116V346.136V339.627H1146.63ZM1009.12 214.059H1001.59V207.184H1009.12V214.059ZM1094.7 213.181H1084.9V203.601H1094.7V213.181Z" transform="translate(-333 12.0811)" fill="#E57B00" fill-opacity="0.23"/>
<path d="M1146.63 339.627V327.048H1131.93V323.758H1112.84V313.958H1106.76V213.181H1095.94V203.601H1104.94V201.48H1085.04V198.555H1048.98V225.979H1043.13V214.059V198.555H1009.2V206.087H988.643V207.184H998.882V214.059H995.811V217.642H988.643V296.918H964.141V311.837H961.654V343.942H956.241V291.579H950.39V286.167H945.343V281.926H938.468V275.856H910.455V281.926H904.823V286.314H901.24V279.439H879.956V286.314H870.52V323.831H867.302V263.716H864.816V258.085H860.427C860.427 257.865 860.427 257.719 860.427 257.5C860.427 250.04 855.966 243.97 850.553 243.97C845.141 243.97 840.679 250.04 840.679 257.5C840.679 257.719 840.679 257.865 840.679 258.085H834.17V235.706H803.816V225.248H805.645V221.665H778.583V217.715H756.567V221.665H751.521H735.064V217.715V211.134H703.687V217.642H679.331V223.054H671.578V229.124H664.703V235.633H656.803V240.313H649.27V246.164H587.32V253.331H576.495V270.956H568.303V273.442H556.601V305.255H553.382V341.309H549.433V275.636H537.877V270.956H529.539V150.58L529.904 150.068L528.442 -8.92731e-06C528.442 -8.92731e-06 528.442 2.48651 526.979 8.33711C525.516 14.1877 524.858 33.9335 524.053 40.1497C523.395 46.2197 514.252 55.2882 503.793 62.1626C493.334 69.0371 487.922 70.134 472.416 84.9068C456.91 99.6796 456.91 107.944 456.105 111.673C455.52 114.599 454.935 138.22 454.716 147.435H446.67V157.235H439.576V314.25H430.14V291.579H424.728V285.729H416.171V273.442H410.758V249.089H408.271V235.56H402.42C401.25 228.466 397.593 223.273 393.278 223.273C389.035 223.273 385.305 228.393 384.135 235.56H379.381V249.089H376.089V301.452H363.509V305.255H350.125V309.204H340.031V301.452H335.643V295.528H334.18V293.408L322.624 279.366L312.164 293.408V295.528H309.678V301.452H307.557V250.406H298.414V181.149H281.445V176.761H228.711V305.255H209.256V279.659H190.166V216.18H186.874V203.601H137.505V216.18H135.018V288.361H124.559V313.958H103.202V273.516H75.4081V216.18H69.4105C69.4105 216.107 69.4105 215.96 69.4105 215.887C69.4105 213.547 66.6312 211.645 62.7547 210.841C62.8279 209.744 62.9741 208.72 62.9741 207.55C62.9741 201.626 61.2188 196.8 59.1708 196.8C57.1229 196.8 55.3675 201.626 55.3675 207.55C55.3675 208.72 55.4406 209.89 55.5869 210.914C51.9299 211.719 49.2968 213.62 49.2968 215.887C49.2968 215.96 49.2968 216.107 49.2968 216.18H46.2249V267.446H41.8365V216.18H36.8629C36.8629 216.107 36.8629 215.96 36.8629 215.887C36.8629 213.547 34.0836 211.645 30.2071 210.841C30.2802 209.744 30.4265 208.72 30.4265 207.55C30.4265 201.626 28.6712 196.8 26.6232 196.8C24.5753 196.8 22.8199 201.626 22.8199 207.55C22.8199 208.72 22.893 209.89 23.0393 210.914C19.3823 211.719 16.7492 213.62 16.7492 215.887C16.7492 215.96 16.7492 216.107 16.7492 216.18H12.6533V267.446H0V346.136V386.944V434.919H1162.94V385.116V346.136V339.627H1146.63ZM1009.12 214.059H1001.59V207.184H1009.12V214.059ZM1094.7 213.181H1084.9V203.601H1094.7V213.181Z" transform="translate(830.063)" fill="#E57B00" fill-opacity="0.23"/>
</svg>
