<?xml version="1.0" standalone="no"?><!-- Generator: Gravit.io --><svg xmlns="http://www.w3.org/2000/svg" xmlns:xlink="http://www.w3.org/1999/xlink" style="isolation:isolate" viewBox="0 0 914.006 341.861" width="914.006" height="341.861"><defs><clipPath id="_clipPath_vCXprMj8fTjv0wpa6IeHgS9yt6p5njYN"><rect width="914.006" height="341.861"/></clipPath></defs><g clip-path="url(#_clipPath_vCXprMj8fTjv0wpa6IeHgS9yt6p5njYN)"><path d=" M 901.187 266.959 L 901.187 257.071 L 889.632 257.071 L 889.632 254.484 L 874.629 254.484 L 874.629 246.782 L 869.857 246.782 L 869.857 167.568 L 861.35 167.568 L 861.35 160.037 L 868.42 160.037 L 868.42 158.37 L 852.785 158.37 L 852.785 156.071 L 824.445 156.071 L 824.445 177.628 L 819.846 177.628 L 819.846 168.258 L 819.846 156.071 L 793.173 156.071 L 793.173 161.992 L 777.02 161.992 L 777.02 162.854 L 785.068 162.854 L 785.068 168.258 L 782.653 168.258 L 782.653 171.074 L 777.02 171.074 L 777.02 233.388 L 757.762 233.388 L 757.762 245.114 L 755.808 245.114 L 755.808 270.35 L 751.554 270.35 L 751.554 229.191 L 746.955 229.191 L 746.955 224.937 L 742.989 224.937 L 742.989 221.603 L 737.585 221.603 L 737.585 216.832 L 715.569 216.832 L 715.569 221.603 L 711.142 221.603 L 711.142 225.052 L 708.326 225.052 L 708.326 219.649 L 691.598 219.649 L 691.598 225.052 L 684.182 225.052 L 684.182 254.542 L 681.653 254.542 L 681.653 207.29 L 679.698 207.29 L 679.698 202.863 L 676.249 202.863 C 676.249 202.691 676.249 202.576 676.249 202.403 C 676.249 196.54 672.743 191.769 668.489 191.769 C 664.235 191.769 660.728 196.54 660.728 202.403 C 660.728 202.576 660.728 202.691 660.728 202.863 L 655.612 202.863 L 655.612 185.273 L 631.756 185.273 L 631.756 177.053 L 633.193 177.053 L 633.193 174.236 L 611.924 174.236 L 611.924 171.132 L 594.621 171.132 L 594.621 174.236 L 590.655 174.236 L 577.721 174.236 L 577.721 171.132 L 577.721 165.958 L 553.06 165.958 L 553.06 171.074 L 533.917 171.074 L 533.917 175.328 L 527.824 175.328 L 527.824 180.099 L 522.42 180.099 L 522.42 185.215 L 516.212 185.215 L 516.212 188.895 L 510.291 188.895 L 510.291 193.493 L 461.602 193.493 L 461.602 199.127 L 453.094 199.127 L 453.094 212.981 L 446.656 212.981 L 446.656 214.935 L 437.458 214.935 L 437.458 239.941 L 434.929 239.941 L 434.929 268.281 L 431.825 268.281 L 431.825 216.66 L 422.742 216.66 L 422.742 212.981 L 416.189 212.981 L 416.189 118.361 L 416.476 117.958 L 415.326 0 C 415.326 0 415.326 1.954 414.177 6.553 C 413.027 11.152 412.51 26.673 411.877 31.559 C 411.36 36.33 404.174 43.458 395.954 48.862 C 387.734 54.265 383.48 55.128 371.293 66.74 C 359.106 78.352 359.106 84.847 358.474 87.779 C 358.014 90.078 357.554 108.646 357.382 115.889 L 351.059 115.889 L 351.059 123.592 L 345.483 123.592 L 345.483 247.011 L 338.067 247.011 L 338.067 229.191 L 333.813 229.191 L 333.813 224.592 L 327.088 224.592 L 327.088 214.935 L 322.834 214.935 L 322.834 195.793 L 320.879 195.793 L 320.879 185.158 L 316.28 185.158 C 315.361 179.582 312.486 175.501 309.095 175.501 C 305.761 175.501 302.829 179.525 301.909 185.158 L 298.173 185.158 L 298.173 195.793 L 295.586 195.793 L 295.586 236.952 L 285.699 236.952 L 285.699 239.941 L 275.179 239.941 L 275.179 243.045 L 267.246 243.045 L 267.246 236.952 L 263.797 236.952 L 263.797 232.295 L 262.647 232.295 L 262.647 230.628 L 253.565 219.591 L 245.344 230.628 L 245.344 232.295 L 243.39 232.295 L 243.39 236.952 L 241.723 236.952 L 241.723 196.827 L 234.537 196.827 L 234.537 142.389 L 221.201 142.389 L 221.201 138.94 L 179.754 138.94 L 179.754 239.941 L 164.464 239.941 L 164.464 219.821 L 149.46 219.821 L 149.46 169.925 L 146.873 169.925 L 146.873 160.037 L 108.071 160.037 L 108.071 169.925 L 106.117 169.925 L 106.117 226.662 L 97.896 226.662 L 97.896 246.782 L 81.111 246.782 L 81.111 214.993 L 59.267 214.993 L 59.267 169.925 L 54.553 169.925 C 54.553 169.867 54.553 169.752 54.553 169.695 C 54.553 167.855 52.368 166.361 49.322 165.728 C 49.379 164.866 49.494 164.061 49.494 163.141 C 49.494 158.485 48.115 154.691 46.505 154.691 C 44.895 154.691 43.516 158.485 43.516 163.141 C 43.516 164.061 43.573 164.981 43.688 165.786 C 40.814 166.418 38.745 167.913 38.745 169.695 C 38.745 169.752 38.745 169.867 38.745 169.925 L 36.33 169.925 L 36.33 210.221 L 32.881 210.221 L 32.881 169.925 L 28.972 169.925 C 28.972 169.867 28.972 169.752 28.972 169.695 C 28.972 167.855 26.788 166.361 23.741 165.728 C 23.799 164.866 23.914 164.061 23.914 163.141 C 23.914 158.485 22.534 154.691 20.924 154.691 C 19.315 154.691 17.935 158.485 17.935 163.141 C 17.935 164.061 17.993 164.981 18.108 165.786 C 15.233 166.418 13.164 167.913 13.164 169.695 C 13.164 169.752 13.164 169.867 13.164 169.925 L 9.945 169.925 L 9.945 210.221 L 0 210.221 L 0 272.075 L 0 304.151 L 0 341.861 L 914.006 341.861 L 914.006 302.714 L 914.006 272.075 L 914.006 266.959 L 901.187 266.959 L 901.187 266.959 Z  M 793.115 168.258 L 787.195 168.258 L 787.195 162.854 L 793.115 162.854 L 793.115 168.258 Z  M 860.372 167.568 L 852.67 167.568 L 852.67 160.037 L 860.372 160.037 L 860.372 167.568 Z " fill="rgb(66,102,137)"/></g></svg>